{
    "asset" : {
        "generator" : "Khronos glTF Blender I/O v1.7.33",
        "version" : "2.0"
    },
    "scene" : 0,
    "scenes" : [
        {
            "name" : "Scene",
            "nodes" : [
                3,
                4,
                5,
                6
            ]
        }
    ],
    "nodes" : [
        {
            "name" : "Plate1.003",
            "rotation" : [
                -0.7071068286895752,
                0,
                0,
                0.7071067094802856
            ],
            "scale" : [
                217.8243408203125,
                217.8243408203125,
                217.8243408203125
            ],
            "translation" : [
                -146.76205444335938,
                -1.5848755836486816,
                -1043.3494873046875
            ]
        },
        {
            "children" : [
                0
            ],
            "name" : "RootNode"
        },
        {
            "children" : [
                1
            ],
            "name" : "240bbaef03094ee99b937df959c1e764.fbx",
            "rotation" : [
                0.7071068286895752,
                0,
                0,
                0.7071068286895752
            ]
        },
        {
            "children" : [
                2
            ],
            "name" : "RootNode (model correction matrix)"
        },
        {
            "mesh" : 0,
            "name" : "\u041a\u0440\u0430\u0441\u043a\u0430 - \u041a\u0430\u0434\u043c\u0438\u0439 \u0416\u0435\u043b\u0442\u044b\u0439",
            "scale" : [
                0.009999999776482582,
                0.009999999776482582,
                0.009999999776482582
            ]
        },
        {
            "mesh" : 1,
            "name" : "\u041b\u0438\u0441\u0442\u0432\u0430 - \u041b\u0438\u0441\u0442\u044c\u044f \u0414\u0435\u0440\u0435\u0432\u0430 \u041c\u0435\u043b\u043a\u0438\u0435",
            "scale" : [
                0.009999999776482582,
                0.009999999776482582,
                0.009999999776482582
            ]
        },
        {
            "mesh" : 2,
            "name" : "\u0422\u0440\u0430\u0432\u0430 - \u0417\u0435\u043b\u0435\u043d\u0430\u044f",
            "scale" : [
                0.009999999776482582,
                0.009999999776482582,
                0.009999999776482582
            ]
        }
    ],
    "materials" : [
        {
            "doubleSided" : true,
            "name" : "\u041a\u0440\u0430\u0441\u043a\u0430 - \u041a\u0430\u0434\u043c\u0438\u0439 \u0416\u0435\u043b\u0442\u044b\u0439",
            "pbrMetallicRoughness" : {
                "baseColorFactor" : [
                    0.9882352948188782,
                    0.9843137264251709,
                    0,
                    1
                ],
                "roughnessFactor" : 0.9683772325515747
            }
        },
        {
            "alphaMode" : "BLEND",
            "doubleSided" : true,
            "name" : "\u041b\u0438\u0441\u0442\u0432\u0430 - \u041b\u0438\u0441\u0442\u044c\u044f \u0414\u0435\u0440\u0435\u0432\u0430 \u041c\u0435\u043b\u043a\u0438\u0435",
            "pbrMetallicRoughness" : {
                "baseColorTexture" : {
                    "index" : 0
                },
                "roughnessFactor" : 0.9251668453216553
            }
        },
        {
            "alphaMode" : "BLEND",
            "doubleSided" : true,
            "name" : "\u0422\u0440\u0430\u0432\u0430 - \u0417\u0435\u043b\u0435\u043d\u0430\u044f",
            "pbrMetallicRoughness" : {
                "baseColorTexture" : {
                    "index" : 1
                }
            }
        }
    ],
    "meshes" : [
        {
            "name" : "\u041a\u0440\u0430\u0441\u043a\u0430 - \u041a\u0430\u0434\u043c\u0438\u0439 \u0416\u0435\u043b\u0442\u044b\u0439",
            "primitives" : [
                {
                    "attributes" : {
                        "POSITION" : 0,
                        "NORMAL" : 1
                    },
                    "indices" : 2,
                    "material" : 0
                }
            ]
        },
        {
            "name" : "\u041b\u0438\u0441\u0442\u0432\u0430 - \u041b\u0438\u0441\u0442\u044c\u044f \u0414\u0435\u0440\u0435\u0432\u0430 \u041c\u0435\u043b\u043a\u0438\u0435",
            "primitives" : [
                {
                    "attributes" : {
                        "POSITION" : 3,
                        "NORMAL" : 4,
                        "TEXCOORD_0" : 5
                    },
                    "indices" : 6,
                    "material" : 1
                }
            ]
        },
        {
            "name" : "\u0422\u0440\u0430\u0432\u0430 - \u0417\u0435\u043b\u0435\u043d\u0430\u044f",
            "primitives" : [
                {
                    "attributes" : {
                        "POSITION" : 7,
                        "NORMAL" : 8,
                        "TEXCOORD_0" : 9
                    },
                    "indices" : 10,
                    "material" : 2
                }
            ]
        }
    ],
    "textures" : [
        {
            "sampler" : 0,
            "source" : 0
        },
        {
            "sampler" : 0,
            "source" : 1
        }
    ],
    "images" : [
        {
            "bufferView" : 7,
            "mimeType" : "image/png",
            "name" : "55c1a38a1a3bf284d71cd02834671936"
        },
        {
            "bufferView" : 12,
            "mimeType" : "image/png",
            "name" : "59a3cd2b77668d92fc35aa72c57973e8"
        }
    ],
    "accessors" : [
        {
            "bufferView" : 0,
            "componentType" : 5126,
            "count" : 32,
            "max" : [
                2780.840576171875,
                0,
                -795.0054931640625
            ],
            "min" : [
                2580.769287109375,
                -5,
                -995.0635986328125
            ],
            "type" : "VEC3"
        },
        {
            "bufferView" : 1,
            "componentType" : 5126,
            "count" : 32,
            "type" : "VEC3"
        },
        {
            "bufferView" : 2,
            "componentType" : 5123,
            "count" : 120,
            "type" : "SCALAR"
        },
        {
            "bufferView" : 3,
            "componentType" : 5126,
            "count" : 876,
            "max" : [
                2817.977783203125,
                19.508716583251953,
                -757.8683471679688
            ],
            "min" : [
                2543.632080078125,
                -0.00010136563651030883,
                -1195.2822265625
            ],
            "type" : "VEC3"
        },
        {
            "bufferView" : 4,
            "componentType" : 5126,
            "count" : 876,
            "type" : "VEC3"
        },
        {
            "bufferView" : 5,
            "componentType" : 5126,
            "count" : 876,
            "type" : "VEC2"
        },
        {
            "bufferView" : 6,
            "componentType" : 5123,
            "count" : 1314,
            "type" : "SCALAR"
        },
        {
            "bufferView" : 8,
            "componentType" : 5126,
            "count" : 16,
            "max" : [
                2780.840576171875,
                0,
                -795.0054931640625
            ],
            "min" : [
                2580.769287109375,
                0,
                -995.0635986328125
            ],
            "type" : "VEC3"
        },
        {
            "bufferView" : 9,
            "componentType" : 5126,
            "count" : 16,
            "type" : "VEC3"
        },
        {
            "bufferView" : 10,
            "componentType" : 5126,
            "count" : 16,
            "type" : "VEC2"
        },
        {
            "bufferView" : 11,
            "componentType" : 5123,
            "count" : 24,
            "type" : "SCALAR"
        }
    ],
    "bufferViews" : [
        {
            "buffer" : 0,
            "byteLength" : 384,
            "byteOffset" : 0
        },
        {
            "buffer" : 0,
            "byteLength" : 384,
            "byteOffset" : 384
        },
        {
            "buffer" : 0,
            "byteLength" : 240,
            "byteOffset" : 768
        },
        {
            "buffer" : 0,
            "byteLength" : 10512,
            "byteOffset" : 1008
        },
        {
            "buffer" : 0,
            "byteLength" : 10512,
            "byteOffset" : 11520
        },
        {
            "buffer" : 0,
            "byteLength" : 7008,
            "byteOffset" : 22032
        },
        {
            "buffer" : 0,
            "byteLength" : 2628,
            "byteOffset" : 29040
        },
        {
            "buffer" : 0,
            "byteLength" : 364979,
            "byteOffset" : 31668
        },
        {
            "buffer" : 0,
            "byteLength" : 192,
            "byteOffset" : 396648
        },
        {
            "buffer" : 0,
            "byteLength" : 192,
            "byteOffset" : 396840
        },
        {
            "buffer" : 0,
            "byteLength" : 128,
            "byteOffset" : 397032
        },
        {
            "buffer" : 0,
            "byteLength" : 48,
            "byteOffset" : 397160
        },
        {
            "buffer" : 0,
            "byteLength" : 2364488,
            "byteOffset" : 397208
        }
    ],
    "samplers" : [
        {
            "magFilter" : 9729,
            "minFilter" : 9987
        }
    ],
    "buffers" : [
        {
            "byteLength" : 2761696,
            "uri" : "data:application/octet-stream;base64,"
        }
    ]
}
